<svg width="50" height="50" viewBox="0 0 50 50" fill="none" xmlns="http://www.w3.org/2000/svg">
<g clip-path="url(#clip0_2030_9940)">
<path d="M13.0449 3.78125L11.9492 4.92676L4.92676 11.9492L3.78125 13.0449L15.2363 24.5L7.26758 32.4688L7.16797 32.9668L5.4248 41.7324L4.92676 44.0732L7.26758 43.5752L16.0332 41.832L16.5312 41.7324L24.5 33.7637L35.9053 45.1689L37.001 44.0234L44.0234 37.001L45.1689 35.9053L33.7637 24.5L41.6328 16.6309C44.1978 14.0659 44.1978 9.93213 41.6328 7.36719C40.3503 6.08472 38.6757 5.4248 37.001 5.4248C35.3263 5.4248 33.6516 6.08472 32.3691 7.36719L24.5 15.2363L13.0449 3.78125ZM13.0449 8.31348L16.1328 11.4512L13.792 13.792L16.083 16.083L18.4238 13.7422L22.209 17.5273L17.4775 22.2588L8.26367 13.0449L13.0449 8.31348ZM37.001 8.5127C37.829 8.5127 38.6694 8.88623 39.3916 9.6084C40.8297 11.0465 40.8297 12.9017 39.3916 14.3398L38.3457 15.3857L33.6143 10.6543L34.6602 9.6084C35.3823 8.88623 36.173 8.5127 37.001 8.5127ZM31.373 12.8955L36.1045 17.627L16.8301 36.9014C15.778 34.8781 14.1219 33.222 12.0986 32.1699L31.373 12.8955ZM31.5225 26.7412L35.3076 30.5264L32.917 32.917L35.208 35.208L37.5986 32.8174L40.6367 35.8555L35.8555 40.6367L26.7412 31.5225L31.5225 26.7412ZM10.0566 34.71C11.9679 35.5131 13.4869 37.0321 14.29 38.9434L9.01074 39.9893L10.0566 34.71Z" fill="#873A68"/>
</g>
<defs>
<clipPath id="clip0_2030_9940">
<rect width="50" height="50" fill="white"/>
</clipPath>
</defs>
</svg>
